<svg width="137" height="28" viewBox="0 0 137 28" fill="none" xmlns="http://www.w3.org/2000/svg">
<g clip-path="url(#clip0_2814_2566)">
<path d="M5.11736 26.8422H0L1.12252 19.0505C1.76631 14.577 5.94273 10.9453 10.4163 10.9453H32.3053L31.5626 16.0627H9.67346C8.0227 16.0627 6.48749 17.3998 6.25639 19.0505L5.13388 26.8422H5.11736Z" fill="#3F80FF"/>
<path d="M33.1477 5.11736H5.6129L3.83008 0H33.8904L33.1477 5.11736Z" fill="#3F80FF"/>
<path d="M125.144 16.0114H111.294C106.606 16.0114 103.338 12.1981 104.015 7.49345L105.071 0.164062H110.188L109.132 7.49345C108.868 9.35881 110.155 10.8775 112.037 10.8775H125.887C127.752 10.8775 129.502 9.35881 129.766 7.49345L130.823 0.164062H135.94L134.884 7.49345C134.207 12.1816 129.833 16.0114 125.144 16.0114Z" fill="#3F80FF"/>
<path d="M123.592 26.8382H101.175L101.918 21.7209H124.335C126.2 21.7209 127.95 20.2022 128.214 18.3368L129.783 7.50781H134.9L133.332 18.3368C132.655 23.0249 128.28 26.8548 123.592 26.8548V26.8382Z" fill="#3F80FF"/>
<path d="M73.4591 27.0046H68.3418L69.4643 19.279C70.1246 14.7724 74.3175 11.1077 78.8241 11.1077H91.7165C93.3178 11.1077 94.8199 9.80363 95.051 8.20239C95.2821 6.60115 94.1596 5.29705 92.5583 5.29705H74.0204L72.2375 0.179688H93.2848C97.7088 0.179688 100.796 3.77835 100.152 8.2189C99.5082 12.6595 95.3813 16.2581 90.9572 16.2581H78.0646C76.381 16.2581 74.8127 17.6282 74.565 19.312L73.4425 27.0376L73.4591 27.0046Z" fill="#3F80FF"/>
<path d="M33.6426 26.8414H38.7599L41.4011 8.53443C41.6652 6.66907 43.415 5.15037 45.2804 5.15037H59.1304C60.9957 5.15037 62.2997 6.66907 62.0356 8.53443L59.3944 26.8414H64.5117L67.153 8.53443C67.8463 3.82976 64.5777 0 59.8896 0H46.0398C41.3515 0 36.9771 3.81327 36.3002 8.51794L33.659 26.825L33.6426 26.8414Z" fill="#3F80FF"/>
<path d="M37.3398 18.9377H55.3168L58.5853 13.8203H38.0827L37.3398 18.9377Z" fill="#3F80FF"/>
<path d="M84.3865 16.4606L91.2866 27.009H97.8567L87.9851 11.9375L83.5117 15.14L84.3865 16.4606Z" fill="#3F80FF"/>
</g>
<defs>
<clipPath id="clip0_2814_2566">
<rect width="137" height="27.0395" fill="white"/>
</clipPath>
</defs>
</svg>
