<svg width="76" height="15" viewBox="0 0 76 15" fill="none" xmlns="http://www.w3.org/2000/svg">
<path d="M2.83883 14.8902H0L0.622711 10.5678C0.979853 8.08615 3.2967 6.0715 5.77839 6.0715H17.9212L17.5092 8.91033H5.3663C4.45055 8.91033 3.5989 9.65209 3.4707 10.5678L2.84799 14.8902H2.83883Z" fill="#3F80FF"/>
<path d="M18.3883 2.83883H3.11352L2.12451 0H18.8003L18.3883 2.83883Z" fill="#3F80FF"/>
<path d="M69.4231 8.88279H61.74C59.1392 8.88279 57.3261 6.76741 57.7015 4.15752L58.2876 0.0915833H61.1264L60.5403 4.15752C60.3938 5.19232 61.1081 6.03481 62.1521 6.03481H69.8352C70.87 6.03481 71.8407 5.19232 71.9872 4.15752L72.5733 0.0915833H75.4121L74.8261 4.15752C74.4506 6.75825 72.0239 8.88279 69.4231 8.88279Z" fill="#3F80FF"/>
<path d="M68.5622 14.8902H56.1263L56.5384 12.0514H68.9743C70.0091 12.0514 70.9798 11.2089 71.1263 10.1741L71.9963 4.16675H74.8351L73.9652 10.1741C73.5897 12.7748 71.163 14.8994 68.5622 14.8994V14.8902Z" fill="#3F80FF"/>
<path d="M40.751 14.9817H37.9122L38.5349 10.696C38.9012 8.19598 41.2272 6.16301 43.7272 6.16301H50.8792C51.7675 6.16301 52.6008 5.43957 52.729 4.55129C52.8572 3.66301 52.2345 2.93957 51.3462 2.93957H41.0624L40.0733 0.100739H51.7492C54.2034 0.100739 55.9158 2.09708 55.5587 4.56045C55.2016 7.02382 52.9122 9.02015 50.458 9.02015H43.3059C42.3719 9.02015 41.5019 9.78023 41.3645 10.7143L40.7418 15L40.751 14.9817Z" fill="#3F80FF"/>
<path d="M18.663 14.8901H21.5018L22.967 4.73443C23.1135 3.69963 24.0842 2.85714 25.119 2.85714H32.8022C33.837 2.85714 34.5604 3.69963 34.4139 4.73443L32.9487 14.8901H35.7875L37.2527 4.73443C37.6373 2.12454 35.8241 0 33.2234 0H25.5403C22.9395 0 20.5128 2.11539 20.1373 4.72528L18.6721 14.881L18.663 14.8901Z" fill="#3F80FF"/>
<path d="M20.7142 10.5037H30.6868L32.5 7.66486H21.1263L20.7142 10.5037Z" fill="#3F80FF"/>
<path d="M46.8131 9.13001L50.6409 14.9817H54.2856L48.8094 6.62085L46.3278 8.39741L46.8131 9.13001Z" fill="#3F80FF"/>
</svg>
