<svg width="32" height="50" viewBox="0 0 32 50" fill="none" xmlns="http://www.w3.org/2000/svg">
<mask id="mask0_2956_2487" style="mask-type:alpha" maskUnits="userSpaceOnUse" x="7" y="39" width="18" height="9">
<path opacity="0.8" d="M20.5 39H11.5C9.01472 39 7 41.0147 7 43.5C7 45.9853 9.01472 48 11.5 48H20.5C22.9853 48 25 45.9853 25 43.5C25 41.0147 22.9853 39 20.5 39Z" fill="url(#paint0_linear_2956_2487)"/>
</mask>
<g mask="url(#mask0_2956_2487)">
<path d="M27 37H5V50H27V37Z" fill="#9C9C9C"/>
</g>
<g clip-path="url(#clip0_2956_2487)">
<path d="M15.7603 0H15.7602C7.05608 0 0 7.05608 0 15.7602V15.7603C0 24.4644 7.05608 31.5205 15.7602 31.5205H15.7603C24.4644 31.5205 31.5205 24.4644 31.5205 15.7603V15.7602C31.5205 7.05608 24.4644 0 15.7603 0Z" fill="url(#paint1_linear_2956_2487)"/>
<path d="M15.7603 1H15.7602C7.60837 1 1 7.60837 1 15.7602V15.7603C1 23.9121 7.60837 30.5205 15.7602 30.5205H15.7603C23.9121 30.5205 30.5205 23.9121 30.5205 15.7603V15.7602C30.5205 7.60837 23.9121 1 15.7603 1Z" fill="url(#paint2_linear_2956_2487)" stroke="#020202" stroke-width="2"/>
<path d="M21.5669 15.7595C21.5669 12.5527 18.9673 9.95312 15.7605 9.95312C12.5537 9.95312 9.9541 12.5527 9.9541 15.7595C9.9541 18.9663 12.5537 21.5659 15.7605 21.5659C18.9673 21.5659 21.5669 18.9663 21.5669 15.7595Z" fill="white"/>
<path d="M18 32C18 30.8954 17.1046 30 16 30C14.8954 30 14 30.8954 14 32V41C14 42.1046 14.8954 43 16 43C17.1046 43 18 42.1046 18 41V32Z" fill="black"/>
</g>
<defs>
<linearGradient id="paint0_linear_2956_2487" x1="20.8214" y1="39.3214" x2="19.5476" y2="48.4927" gradientUnits="userSpaceOnUse">
<stop stop-color="#1A1E27" stop-opacity="0.6"/>
<stop offset="1" stop-color="#1A1E27" stop-opacity="0.2"/>
</linearGradient>
<linearGradient id="paint1_linear_2956_2487" x1="24.2032" y1="1.12573" x2="15.7602" y2="31.5205" gradientUnits="userSpaceOnUse">
<stop stop-color="#3F80FF"/>
<stop offset="1" stop-color="#093997"/>
</linearGradient>
<linearGradient id="paint2_linear_2956_2487" x1="24.2032" y1="1.12573" x2="15.7602" y2="31.5205" gradientUnits="userSpaceOnUse">
<stop stop-color="#3F80FF"/>
<stop offset="1" stop-color="#093997"/>
</linearGradient>
<clipPath id="clip0_2956_2487">
<rect width="32" height="43" fill="white"/>
</clipPath>
</defs>
</svg>
