<svg width="47" height="47" viewBox="0 0 47 47" fill="none" xmlns="http://www.w3.org/2000/svg">
<mask id="mask0_370_643" style="mask-type:alpha" maskUnits="userSpaceOnUse" x="0" y="0" width="47" height="47">
<rect width="47" height="47" fill="#D9D9D9"/>
</mask>
<g mask="url(#mask0_370_643)">
<path d="M37.5091 18.7312C35.8029 11.2237 29.2541 7.84375 23.5016 7.84375H23.4854C17.7491 7.84375 11.1841 11.2075 9.47787 18.715C7.57662 27.1 12.7116 34.2012 17.3591 38.67C19.0064 40.2644 21.2091 41.156 23.5016 41.1562C25.7116 41.1562 27.9216 40.3275 29.6279 38.67C34.2754 34.2012 39.4104 27.1162 37.5091 18.7312Z" fill="url(#paint0_linear_370_643)" stroke="white" stroke-width="2"/>
<path d="M23.5033 26.8725C24.1755 26.8725 24.8411 26.7401 25.4621 26.4829C26.0832 26.2256 26.6475 25.8486 27.1228 25.3733C27.5981 24.8979 27.9751 24.3337 28.2324 23.7126C28.4896 23.0916 28.622 22.426 28.622 21.7538C28.622 21.0816 28.4896 20.4159 28.2324 19.7949C27.9751 19.1739 27.5981 18.6096 27.1228 18.1343C26.6475 17.6589 26.0832 17.2819 25.4621 17.0247C24.8411 16.7674 24.1755 16.635 23.5033 16.635C22.1457 16.635 20.8437 17.1743 19.8838 18.1343C18.9238 19.0942 18.3845 20.3962 18.3845 21.7538C18.3845 23.1113 18.9238 24.4133 19.8838 25.3733C20.8437 26.3332 22.1457 26.8725 23.5033 26.8725Z" fill="white"/>
</g>
<defs>
<linearGradient id="paint0_linear_370_643" x1="23.4935" y1="7.84375" x2="23.4935" y2="41.1562" gradientUnits="userSpaceOnUse">
<stop stop-color="#26FFA3"/>
<stop offset="1" stop-color="#079F5F"/>
</linearGradient>
</defs>
</svg>
